<?xml version="1.0" encoding="utf-8"?>
<!-- Generator: Adobe Illustrator 22.0.1, SVG Export Plug-In . SVG Version: 6.00 Build 0)  -->
<svg version="1.1" id="Capa_1" xmlns="http://www.w3.org/2000/svg" xmlns:xlink="http://www.w3.org/1999/xlink" x="0px" y="0px"
	 viewBox="0 0 512 512" style="enable-background:new 0 0 512 512;" xml:space="preserve">
<style type="text/css">
	.st0{fill:#FFFFFF;}
</style>
<g>
	<g>
		<path class="st0" d="M384,53.3V10.7c0-4.4-2.6-8.3-6.7-9.9c-1.3-0.5-2.6-0.8-4-0.8c-2.9,0-5.6,1.1-7.7,3.3L131,248.6
			c-3.9,4.1-3.9,10.6,0,14.8l234.7,245.3c3,3.1,7.6,4.2,11.7,2.5c4-1.6,6.7-5.5,6.7-9.9v-42.7c0-2.7-1-5.4-2.9-7.3L196,256
			L381.1,60.7C383,58.7,384,56.1,384,53.3z"/>
	</g>
</g>
</svg>
