<?xml version="1.0" encoding="utf-8"?>
<!-- Generator: Adobe Illustrator 22.0.1, SVG Export Plug-In . SVG Version: 6.00 Build 0)  -->
<svg version="1.1" id="Layer_1" xmlns="http://www.w3.org/2000/svg" xmlns:xlink="http://www.w3.org/1999/xlink" x="0px" y="0px"
	 viewBox="0 0 201.5 193.5" style="enable-background:new 0 0 201.5 193.5;" xml:space="preserve">
<style type="text/css">
	.st0{fill:#C1697F;}
</style>
<g>
	<g>
		<g>
			<path class="st0" d="M184.1,30.7H17.4C7.8,30.7,0,38.5,0,48.1v97.4c0,9.6,7.8,17.3,17.4,17.3h166.7c9.6,0,17.4-7.8,17.4-17.3
				V48.1C201.5,38.5,193.7,30.7,184.1,30.7z M194.6,145.4L194.6,145.4c0,5.7-4.7,10.4-10.4,10.4H17.4c-5.8,0-10.4-4.7-10.4-10.4
				V48.1c0-5.7,4.7-10.4,10.4-10.4h166.7c5.8,0,10.4,4.7,10.4,10.4V145.4z"/>
			<rect x="24.3" y="117.6" class="st0" width="73" height="6.9"/>
			<rect x="104.2" y="117.6" class="st0" width="73" height="6.9"/>
			<path class="st0" d="M34.7,96.8h20.9h6.9H73c5.7,0,10.4-4.7,10.4-10.4V75.9V69v-3.5c0-5.7-4.7-10.4-10.4-10.4H62.5h-6.9H34.7
				c-5.7,0-10.4,4.7-10.4,10.4v10.4v6.9v3.5C24.3,92.1,29,96.8,34.7,96.8z M62.5,62H73c1.9,0,3.4,1.6,3.4,3.5V69H62.5V62z
				 M62.5,75.9h13.9v10.4h0c0,1.9-1.5,3.5-3.4,3.5H62.5V75.9z M31.3,65.5c0-1.9,1.5-3.5,3.4-3.5h20.9V69v6.9H31.3V65.5z M31.3,82.9
				h24.3v6.9H34.7c-1.9,0-3.4-1.6-3.4-3.5V82.9z"/>
		</g>
	</g>
</g>
</svg>
