<?xml version="1.0" encoding="utf-8"?>
<!-- Generator: Adobe Illustrator 22.0.1, SVG Export Plug-In . SVG Version: 6.00 Build 0)  -->
<svg version="1.1" id="Capa_1" xmlns="http://www.w3.org/2000/svg" xmlns:xlink="http://www.w3.org/1999/xlink" x="0px" y="0px"
	 viewBox="0 0 617 617" style="enable-background:new 0 0 617 617;" xml:space="preserve">
<g>
	<g>
		<path d="M614.5,308.5c0-168.6-137.4-306-306-306s-306,137.4-306,306c0,92.9,42.1,176.4,107.7,232.6c0.8,0.8,1.6,1.6,3.1,2.3
			c53.1,44.5,121,71.1,196,71.1c73.4,0,141.3-26.5,194.4-69.5c3.1-0.8,5.5-3.1,7-5.5C574,482.6,614.5,400.6,614.5,308.5z
			 M30.6,308.5c0-153,124.9-277.9,277.9-277.9s277.9,124.9,277.9,277.9c0,75-29.6,142.8-78.1,192.8c-7.8-36.7-31.2-99.2-103.1-139.7
			c16.4-20.3,25.7-46.8,25.7-75c0-67.1-54.6-121.8-121.8-121.8s-121.8,54.6-121.8,121.8c0,28.1,10.1,53.8,25.7,75
			c-72.5,40.5-95.9,103-102.9,139.7C61,452.2,30.6,383.5,30.6,308.5z M214.9,287.4c0-51.5,42.1-93.7,93.7-93.7s93.7,42.1,93.7,93.7
			s-42.1,93.7-93.7,93.7S214.9,339,214.9,287.4z M135.2,525.5c1.6-22.6,14-99.2,98.4-142.1c21.1,16.4,46.8,25.7,75,25.7
			s54.6-10.1,75.8-26.5c83.6,42.9,96.8,117.9,99.2,142.1C435.8,563,375,586.4,309.4,586.4C243,586.5,182.8,563.8,135.2,525.5z"/>
		<path d="M309.3,617c-37,0-73-6.4-107.1-19c-32.8-12.1-63.2-29.8-90.3-52.5c-1.7-0.8-2.6-1.8-3.4-2.6C39.5,483.9,0,398.4,0,308.5
			C0,138.4,138.4,0,308.5,0C478.6,0,617,138.4,617,308.5c0,45.2-9.6,88.9-28.4,129.7c-18,39.1-43.6,73.7-76,102.9
			c-1.3,1.9-3.8,4.9-7.8,6.1C449.1,592.3,379.6,617,309.3,617z M308.5,5C141.1,5,5,141.2,5,308.5C5,397,43.9,481.1,111.8,539.2
			l0.1,0.1c0.7,0.7,1.3,1.3,2.4,1.8l0.3,0.1l0.2,0.2C169.8,587.6,237,612,309.3,612c69.4,0,137.9-24.5,192.8-68.9l0.4-0.3l0.5-0.1
			c2.8-0.7,4.7-3.1,5.5-4.4l0.2-0.3l0.3-0.2c65.5-58.9,103-142.4,103-229.2C612,141.2,475.8,5,308.5,5z M309.1,588.9
			c-64.8,0-125.5-21.2-175.4-61.4l-1-0.8l0.1-1.3c0.7-9.8,3.9-35.7,18.4-64.4c17.4-34.3,44.8-61.2,81.3-79.8l1.4-0.7l1.3,1
			c21.2,16.5,46.6,25.2,73.4,25.2c26.3,0,52.6-9.2,74.2-26l1.3-1l1.4,0.7c82.1,42.2,97.6,114.8,100.5,144.1l0.1,1.3l-1.1,0.8
			c-50,40.1-112.3,62.2-175.6,62.2C309.3,588.9,309.2,588.9,309.1,588.9z M137.8,524.4c48.9,38.9,108.1,59.5,171.3,59.5
			c0.1,0,0.2,0,0.3,0c61.7,0,122.5-21.4,171.4-60.3c-3.1-29.1-18.8-97.5-96.3-138.1c-22.2,16.8-49.1,26.1-76,26.1
			c-27.4,0-53.4-8.7-75.2-25.3C152.3,428.4,139.7,500.9,137.8,524.4z M506.9,506.5l-1-4.6c-7.3-34.2-30.2-97.6-101.9-138.1l-2.6-1.5
			l1.9-2.3c16.2-20.1,25.2-46.2,25.2-73.4c0-65.8-53.5-119.3-119.3-119.3S190,220.9,190,286.7c0,25.7,8.7,51.1,25.2,73.5l1.7,2.3
			l-2.5,1.4c-73.4,41-95.2,104.1-101.7,138l-0.9,4.6l-3.3-3.3c-25.2-25.2-45-54.6-58.8-87.6c-14.3-34-21.6-70-21.6-107
			c0-74.7,29.2-145,82.3-198.1c53.1-53.1,123.4-82.3,198.1-82.3c74.7,0,145,29.2,198.1,82.3c53.1,53.1,82.3,123.4,82.3,198.1
			c0,73-28,142.1-78.8,194.6L506.9,506.5z M308.5,33.1c-151.9,0-275.4,123.6-275.4,275.4c0,70.8,26.8,137.2,75.6,187.7
			c7.6-35.2,30.8-95.2,100.8-135.4c-16.1-22.6-24.6-48.2-24.6-74.2c0-68.5,55.8-124.3,124.3-124.3s124.3,55.8,124.3,124.3
			c0,27.3-8.7,53.6-24.5,74.2c30.9,18,55.8,41.7,73.9,70.7c12.4,19.8,21.4,41.5,26.8,64.6c47.9-51.1,74.1-117.6,74.1-187.7
			C584,156.7,460.4,33.1,308.5,33.1z M308.5,383.6c-53,0-96.2-43.1-96.2-96.2s43.1-96.2,96.2-96.2c53,0,96.2,43.1,96.2,96.2
			S361.6,383.6,308.5,383.6z M308.5,196.3c-50.3,0-91.2,40.9-91.2,91.2s40.9,91.2,91.2,91.2c50.3,0,91.2-40.9,91.2-91.2
			S358.8,196.3,308.5,196.3z"/>
	</g>
</g>
</svg>
