<?xml version="1.0" encoding="utf-8"?>
<!-- Generator: Adobe Illustrator 22.0.1, SVG Export Plug-In . SVG Version: 6.00 Build 0)  -->
<svg version="1.1" id="Capa_1" xmlns="http://www.w3.org/2000/svg" xmlns:xlink="http://www.w3.org/1999/xlink" x="0px" y="0px"
	 viewBox="0 0 366.1 366.1" style="enable-background:new 0 0 366.1 366.1;" xml:space="preserve">
<style type="text/css">
	.st0{fill:#010002;}
</style>
<g>
	<g>
		<path class="st0" d="M246.2,5h-11.5H131.3h-11.5H5v114.9v11.5v103.4v11.5v114.9h114.9h11.5h103.4h11.5h114.9V246.2v-11.5V131.3
			v-11.5V5H246.2z M234.7,16.5v103.4H131.3V16.5H234.7z M234.7,131.3v103.4H131.3V131.3H234.7z M16.5,16.5h103.4v103.4H16.5V16.5z
			 M16.5,131.3h103.4v103.4H16.5V131.3z M16.5,349.6V246.2h103.4v103.4L16.5,349.6L16.5,349.6z M131.3,349.6V246.2h103.4v103.4
			L131.3,349.6L131.3,349.6z M349.6,349.6H246.2V246.2h103.4L349.6,349.6L349.6,349.6z M349.6,234.7H246.2V131.3h103.4L349.6,234.7
			L349.6,234.7z M246.2,119.9V16.5h103.4v103.4L246.2,119.9L246.2,119.9z"/>
		<path d="M366.1,366.1H0V0h366.1V366.1z M10,356.1h346.1V10H10V356.1z M239.7,354.6H126.3V241.2h113.4V354.6z M136.3,344.6l93.4,0
			v-93.4h-93.4V344.6z M124.9,354.6H11.5V241.2h113.4V354.6z M21.5,344.6l93.4,0v-93.4H21.5V344.6z M354.6,354.6H241.2V241.2h113.4
			V354.6z M251.2,344.6h93.4l0-93.4h-93.4V344.6z M354.6,239.7H241.2V126.3h113.4V239.7z M251.2,229.7h93.4l0-93.4h-93.4V229.7z
			 M239.7,239.7H126.3V126.3h113.4V239.7z M136.3,229.7h93.4v-93.4h-93.4V229.7z M124.9,239.7H11.5V126.3h113.4V239.7z M21.5,229.7
			h93.4v-93.4H21.5V229.7z M354.6,124.9H241.2V11.5h113.4V124.9z M251.2,114.9l93.4,0V21.5h-93.4V114.9z M239.7,124.9H126.3V11.5
			h113.4V124.9z M136.3,114.9h93.4V21.5h-93.4V114.9z M124.9,124.9H11.5V11.5h113.4V124.9z M21.5,114.9h93.4V21.5H21.5V114.9z"/>
	</g>
</g>
</svg>
